#!OML:ASF F:\VICON\USERDATA\INSTALL\rory7\rory7.ASF
:FULLY-SPECIFIED
:DEGREES
133
root 3.88527 19.0869 4.38896 -178.669 -30.0656 173.885
lowerback 13.5449 0.465522 0.374008
upperback 3.60183 0.377009 0.216002
thorax -3.7984 0.0567514 -0.0392297
lowerneck -9.92745 -2.93509 -6.14727
upperneck 20.3084 -5.37786 7.96388
head 8.29405 -2.52923 3.10976
rclavicle -4.79071e-014 2.70347e-014
rhumerus 10.2553 -11.9999 -72.6366
rradius 92.1464
rwrist 17.8235
rhand -31.966 -11.8204
rfingers 7.12502
rthumb -5.21588 -41.7362
lclavicle -4.79071e-014 2.70347e-014
lhumerus 9.16231 -9.88194 67.9934
lradius 51.536
lwrist 26.7979
lhand -15.326 23.8555
lfingers 7.12502
lthumb 10.8503 53.5552
rfemur -3.70273 24.7679 21.0497
rtibia 22.4536
rfoot -6.21639 8.10894
rtoes 15.911
lfemur -67.722 13.9817 -33.0968
ltibia 93.2378
lfoot -14.7187 -12.8484
ltoes -3.32775
134
root 3.85653 19.0904 4.36817 -178.617 -29.7071 173.915
lowerback 13.3984 0.437529 0.360562
upperback 3.64148 0.337377 0.267608
thorax -3.67776 0.0365389 0.0293229
lowerneck -10.1012 -2.91744 -6.20891
upperneck 20.2923 -5.29206 7.84573
head 8.31255 -2.49549 3.08772
rclavicle -7.81224e-014 2.62396e-014
rhumerus 10.2907 -11.338 -72.4104
rradius 91.8652
rwrist 17.28
rhand -32.1651 -12.4209
rfingers 7.12502
rthumb -5.40814 -42.3319
lclavicle -7.81224e-014 2.62396e-014
lhumerus 9.95124 -10.1519 67.6261
lradius 52.1083
lwrist 27.8627
lhand -16.3563 24.9378
lfingers 7.12502
lthumb 9.85646 54.6871
rfemur -3.6979 24.6114 20.9439
rtibia 22.3205
rfoot -6.02174 8.53507
rtoes 16.0644
lfemur -67.4251 13.8299 -33.0229
ltibia 92.7318
lfoot -13.6616 -13.0102
ltoes 0.469924
135
root 3.82651 19.0994 4.34996 -178.691 -29.3399 174.071
lowerback 13.3992 0.3826 0.506385
upperback 3.63731 0.284624 0.30641
thorax -3.68182 0.00915647 -0.00385574
lowerneck -10.199 -2.88048 -6.24095
upperneck 20.2805 -5.21022 7.79098
head 8.31959 -2.46015 3.08241
rclavicle -2.5842e-014 1.66979e-014
rhumerus 10.2076 -10.5946 -72.2209
rradius 91.7064
rwrist 16.7846
rhand -32.5187 -12.9173
rfingers 7.12502
rthumb -5.74953 -42.8193
lclavicle -2.5842e-014 1.66979e-014
lhumerus 10.6226 -10.272 67.1994
lradius 52.625
lwrist 28.342
lhand -16.3094 25.1355
lfingers 7.12502
lthumb 9.90167 54.8826
rfemur -3.64712 24.5796 20.9945
rtibia 22.251
rfoot -5.82669 8.89765
rtoes 15.913
lfemur -67.0333 13.669 -32.8135
ltibia 92.2948
lfoot -12.8967 -12.9445
ltoes 5.67111
136
root 3.79737 19.1112 4.3326 -178.729 -28.9704 174.104
lowerback 13.4593 0.335458 0.533444
upperback 3.59691 0.226947 0.289772
thorax -3.75677 -0.0192312 -0.0271968
lowerneck -10.2075 -2.77129 -6.08268
upperneck 20.263 -5.06538 7.69998
head 8.29749 -2.38874 3.04008
rclavicle -3.57812e-014 1.51076e-014
rhumerus 10.061 -9.86129 -72.0391
rradius 91.5326
rwrist 16.1686
rhand -33.1451 -12.9793
rfingers 7.12502
rthumb -6.35425 -42.8639
lclavicle -3.57812e-014 1.51076e-014
lhumerus 11.2695 -10.2728 66.8027
lradius 53.018
lwrist 28.3352
lhand -15.8136 24.9994
lfingers 7.12502
lthumb 10.38 54.7232
rfemur -3.60036 24.6164 20.9593
rtibia 22.245
rfoot -5.60575 9.21007
rtoes 15.5597
lfemur -66.5963 13.5884 -32.7466
ltibia 91.9577
lfoot -12.8477 -12.6935
ltoes 9.50483
137
root 3.76999 19.1173 4.3129 -178.752 -28.6268 174.242
lowerback 13.3949 0.261929 0.571738
upperback 3.60276 0.134926 0.327504
thorax -3.71596 -0.0652766 0.00569746
lowerneck -10.2802 -2.62079 -5.93444
upperneck 20.1604 -4.84217 7.61924
head 8.25375 -2.27511 3.01023
rclavicle -6.75868e-015 -1.51076e-014
rhumerus 10.0415 -9.0427 -71.8731
rradius 91.4795
rwrist 15.6403
rhand -33.7909 -13.0163
rfingers 7.12502
rthumb -6.97774 -42.8813
lclavicle -6.75868e-015 -1.51076e-014
lhumerus 12.0362 -10.148 66.4245
lradius 53.3526
lwrist 28.5239
lhand -15.6309 24.682
lfingers 7.12502
lthumb 10.5562 54.3969
rfemur -3.65622 24.7237 21.0314
rtibia 22.2826
rfoot -5.48974 9.40156
rtoes 14.9213
lfemur -66.3422 13.534 -32.6324
ltibia 91.8355
lfoot -13.5699 -11.976
ltoes 9.59867
138
root 3.74438 19.1125 4.29292 -178.704 -28.2834 174.392
lowerback 13.2143 0.260116 0.624795
upperback 3.64802 0.137885 0.376572
thorax -3.57015 -0.0645355 0.0264332
lowerneck -10.4111 -2.62308 -5.91211
upperneck 20.0154 -4.8137 7.6114
head 8.22673 -2.25248 3.00472
rclavicle -6.16232e-014 -1.51076e-014
rhumerus 10.0985 -8.61511 -71.7099
rradius 91.5571
rwrist 15.3467
rhand -34.0054 -12.5393
rfingers 7.12502
rthumb -7.18476 -42.3973
lclavicle -6.16232e-014 -1.51076e-014
lhumerus 12.8796 -10.2151 66.0585
lradius 53.8927
lwrist 28.9457
lhand -15.4079 24.7734
lfingers 7.12502
lthumb 10.7713 54.4772
rfemur -3.82881 24.6325 21.0513
rtibia 22.3651
rfoot -5.41103 9.82682
rtoes 14.3709
lfemur -66.2066 13.3836 -32.484
ltibia 91.8397
lfoot -14.5216 -10.9854
ltoes 8.44597
139
root 3.71936 19.1105 4.27289 -178.608 -27.8364 174.391
lowerback 13.1188 0.280933 0.46185
upperback 3.64779 0.144926 0.402134
thorax -3.51931 -0.0600908 0.143911
lowerneck -10.4235 -2.61152 -5.84842
upperneck 19.8089 -4.77234 7.58102
head 8.15494 -2.22678 2.98647
rclavicle 5.22804e-014 1.27222e-014
rhumerus 10.2263 -8.30429 -71.6672
rradius 91.5637
rwrist 15.1844
rhand -34.0179 -11.3054
rfingers 7.12502
rthumb -7.19689 -41.163
lclavicle 5.22804e-014 1.27222e-014
lhumerus 13.6136 -10.1771 65.6851
lradius 54.3546
lwrist 29.0248
lhand -15.3474 25.0805
lfingers 7.12502
lthumb 10.8297 54.7813
rfemur -3.95469 24.7474 20.9089
rtibia 22.4354
rfoot -5.34584 10.2321
rtoes 14.3953
lfemur -66.0704 13.4134 -32.5212
ltibia 91.908
lfoot -15.3735 -10.1141
ltoes 8.16258
140
root 3.69593 19.1173 4.25656 -178.619 -27.436 174.388
lowerback 13.2502 0.274701 0.32497
upperback 3.61585 0.119108 0.413613
thorax -3.62488 -0.0729062 0.237459
lowerneck -10.4351 -2.57714 -5.75299
upperneck 19.6602 -4.70376 7.50503
head 8.09862 -2.1913 2.95083
rclavicle 3.1408e-014 1.43125e-014
rhumerus 10.2689 -7.84205 -71.5857
rradius 91.7295
rwrist 15.1445
rhand -33.7646 -11.9554
rfingers 7.12502
rthumb -6.95234 -41.8212
lclavicle 3.1408e-014 1.43125e-014
lhumerus 14.3594 -10.0891 65.3717
lradius 54.6953
lwrist 28.9614
lhand -15.6143 25.1155
lfingers 7.12502
lthumb 10.5722 54.8296
rfemur -3.95885 24.9049 20.8186
rtibia 22.4934
rfoot -5.22949 10.516
rtoes 14.4767
lfemur -65.8625 13.4843 -32.5605
ltibia 92.0347
lfoot -15.8408 -9.81435
ltoes 8.55793
141
root 3.67031 19.1251 4.24071 -178.71 -27.1624 174.561
lowerback 13.4204 0.218366 0.415144
upperback 3.56712 0.0591146 0.451053
thorax -3.76814 -0.103394 0.235773
lowerneck -10.4097 -2.51284 -5.70774
upperneck 19.4834 -4.60367 7.51934
head 8.02713 -2.13757 2.95747
rclavicle 3.00165e-014 -1.03368e-014
rhumerus 10.1666 -7.34 -71.534
rradius 92.0628
rwrist 15.3212
rhand -33.5796 -13.8627
rfingers 7.12502
rthumb -6.77374 -43.7344
lclavicle 3.00165e-014 -1.03368e-014
lhumerus 15.0428 -10.0942 65.0109
lradius 55.1001
lwrist 29.0816
lhand -15.4842 24.3138
lfingers 7.12502
lthumb 10.6977 54.0215
rfemur -3.87753 25.0238 20.9511
rtibia 22.4874
rfoot -5.17102 10.6163
rtoes 13.5888
lfemur -65.7163 13.4416 -32.4307
ltibia 92.2489
lfoot -16.1794 -9.8153
ltoes 9.58469
142
root 3.64447 19.1262 4.22256 -178.718 -26.9582 174.689
lowerback 13.4765 0.152826 0.488372
upperback 3.53525 -0.0160542 0.45951
thorax -3.83183 -0.140763 0.215835
lowerneck -10.419 -2.49508 -5.70036
upperneck 19.325 -4.5913 7.65909
head 7.97839 -2.11698 3.00305
rclavicle -1.37161e-014 9.54166e-015
rhumerus 10.1705 -7.18791 -71.5662
rradius 92.2511
rwrist 15.1133
rhand -32.9857 -13.3899
rfingers 7.12502
rthumb -6.20042 -43.2792
lclavicle -1.37161e-014 9.54166e-015
lhumerus 15.6963 -10.1359 64.621
lradius 55.7009
lwrist 29.4016
lhand -15.2664 24.2385
lfingers 7.12502
lthumb 10.9078 53.9352
rfemur -3.85631 24.9239 21.0128
rtibia 22.4542
rfoot -5.15346 10.8289
rtoes 12.4462
lfemur -65.7015 13.3227 -32.3651
ltibia 92.511
lfoot -16.5745 -9.31714
ltoes 9.40693
143
root 3.61901 19.1276 4.20764 -178.689 -26.8001 174.736
lowerback 13.5004 0.0602337 0.54231
upperback 3.56206 -0.135864 0.44746
thorax -3.81673 -0.201963 0.192619
lowerneck -10.6204 -2.47917 -5.77691
upperneck 19.2213 -4.55592 7.80976
head 7.98327 -2.08326 3.068
rclavicle -1.27222e-014 3.10104e-014
rhumerus 10.3562 -7.25521 -71.6383
rradius 92.2695
rwrist 14.6281
rhand -32.2588 -10.8662
rfingers 7.12502
rthumb -5.49858 -40.7748
lclavicle -1.27222e-014 3.10104e-014
lhumerus 16.5322 -10.0267 64.2788
lradius 56.1974
lwrist 29.6459
lhand -14.9667 24.6606
lfingers 7.12502
lthumb 11.1969 54.3418
rfemur -3.88404 24.6781 20.9287
rtibia 22.4358
rfoot -4.94956 11.303
rtoes 12.2416
lfemur -65.7208 13.1664 -32.4117
ltibia 92.7681
lfoot -16.8859 -8.39242
ltoes 8.22277
144
root 3.59691 19.1288 4.19298 -178.733 -26.4945 174.864
lowerback 13.5974 0.0414649 0.564057
upperback 3.58217 -0.161578 0.463335
thorax -3.84834 -0.217046 0.201709
lowerneck -10.7552 -2.46153 -5.7458
upperneck 19.0443 -4.51375 7.86931
head 7.94698 -2.04785 3.08479
rclavicle 1.13307e-014 1.19271e-014
rhumerus 10.4695 -7.26016 -71.6717
rradius 92.3299
rwrist 14.1977
rhand -31.7278 -9.54047
rfingers 7.12502
rthumb -4.98591 -39.4618
lclavicle 1.13307e-014 1.19271e-014
lhumerus 17.4757 -9.94342 63.9886
lradius 56.5305
lwrist 29.7966
lhand -15.0234 25.0983
lfingers 7.12502
lthumb 11.1422 54.7825
rfemur -3.89707 24.834 20.9431
rtibia 22.47
rfoot -4.819 11.6013
rtoes 12.321
lfemur -65.7437 13.1524 -32.3383
ltibia 92.9704
lfoot -16.9305 -7.87021
ltoes 8.77242
145
root 3.57604 19.1341 4.17816 -178.709 -26.1987 174.954
lowerback 13.6405 0.0291932 0.498616
upperback 3.60989 -0.190596 0.480619
thorax -3.84259 -0.233014 0.261781
lowerneck -10.8263 -2.42241 -5.7035
upperneck 18.7955 -4.43981 7.93169
head 7.87278 -1.99764 3.10381
rclavicle -2.8625e-014 -1.98785e-014
rhumerus 10.5131 -7.12737 -71.7634
rradius 92.4731
rwrist 13.8636
rhand -31.4541 -8.98696
rfingers 7.12502
rthumb -4.72164 -38.9143
lclavicle -2.8625e-014 -1.98785e-014
lhumerus 18.398 -9.82439 63.6575
lradius 56.854
lwrist 30.1003
lhand -14.6548 24.5957
lfingers 7.12502
lthumb 11.4977 54.2604
rfemur -3.99084 24.9702 20.8946
rtibia 22.504
rfoot -4.66355 11.8485
rtoes 12.8589
lfemur -65.7986 13.1419 -32.2942
ltibia 93.1135
lfoot -17.0556 -7.69666
ltoes 9.92304
146
root 3.55702 19.1416 4.16257 -178.664 -26.0222 174.999
lowerback 13.5519 0.00688365 0.460127
upperback 3.719 -0.237681 0.443657
thorax -3.6801 -0.2598 0.25177
lowerneck -10.8969 -2.44318 -5.67129
upperneck 18.4666 -4.45226 8.06319
head 7.78077 -1.98244 3.13782
rclavicle 1.19271e-014 -1.43125e-014
rhumerus 10.6552 -7.10629 -71.8195
rradius 92.5284
rwrist 13.2571
rhand -31.4363 -8.51146
rfingers 7.12502
rthumb -4.70444 -38.4392
lclavicle 1.19271e-014 -1.43125e-014
lhumerus 19.4042 -9.74363 63.2872
lradius 57.2352
lwrist 30.4594
lhand -14.1231 24.219
lfingers 7.12502
lthumb 12.0104 53.8544
rfemur -4.06269 25.0589 20.8545
rtibia 22.5139
rfoot -4.45679 11.9413
rtoes 13.1928
lfemur -65.8819 13.0637 -32.3193
ltibia 93.204
lfoot -17.0794 -7.47542
ltoes 11.0757
